<svg xmlns="http://www.w3.org/2000/svg" viewBox="0 0 100 100">
  <defs>
    <linearGradient id="bg" x1="0%" y1="0%" x2="100%" y2="100%">
      <stop offset="0%" style="stop-color:#1a3647"/>
      <stop offset="100%" style="stop-color:#2a5a6a"/>
    </linearGradient>
    <linearGradient id="gear" x1="0%" y1="0%" x2="100%" y2="100%">
      <stop offset="0%" style="stop-color:#f59e0b"/>
      <stop offset="100%" style="stop-color:#d97706"/>
    </linearGradient>
  </defs>
  
  <!-- Background -->
  <rect width="100" height="100" rx="20" fill="url(#bg)"/>
  
  <!-- Gear Icon -->
  <g transform="translate(50, 50)">
    <path d="M0,-35 L5,-30 L5,-25 L10,-22 L15,-27 L22,-22 L17,-15 L20,-10 L25,-10 L27,-3 L22,-3 L20,5 L25,10 L20,18 L15,13 L8,18 L8,25 L0,28 L-8,25 L-8,18 L-15,13 L-20,18 L-25,10 L-20,5 L-22,-3 L-27,-3 L-25,-10 L-20,-10 L-17,-15 L-22,-22 L-15,-27 L-10,-22 L-5,-25 L-5,-30 Z" 
          fill="url(#gear)" 
          stroke="#fff" 
          stroke-width="1"/>
    <circle cx="0" cy="0" r="10" fill="url(#bg)"/>
  </g>
</svg>
